/* XPM */
static char *_5fd9de017f24079f7c9f3a68c9cc50cuBebEeshtlryinQn[] = {
/* columns rows colors chars-per-pixel */
"120 120 40 1 ",
"  c #000300",
". c #000700",
"X c #000A00",
"o c #000D00",
"O c #001300",
"+ c #001400",
"@ c #001900",
"# c #001E00",
"$ c #002200",
"% c #002600",
"& c #002A00",
"* c #002C00",
"= c #003100",
"- c #003500",
"; c #013A00",
": c #003C00",
"> c #004000",
", c #014500",
"< c #014B00",
"1 c #014D00",
"2 c #015100",
"3 c #015700",
"4 c #015800",
"5 c #015C00",
"6 c #016300",
"7 c #016600",
"8 c #016900",
"9 c #016C00",
"0 c #017000",
"q c #027600",
"w c #017A00",
"e c #017F00",
"r c #028300",
"t c #028400",
"y c #028B00",
"u c #028D00",
"i c #029300",
"p c #029500",
"a c #029900",
"s c #03A700",
/* pixels */
"*X#o. ;+X @X%oO X +.$.o.X &Oo.X.#&u&#XoXO...oX=o Xo.&O@o@. &5++o+o++>@&oX. oXX.. OoX >,@X. . X ;;#O*=. +.%o@X>o. *X .-X.",
"2&>=O.5%@ 6$3$;O*.1O3+@o%X7%=o$+6&i65%<#>#%o##u%.@*%7*2&4X.%r>>&:-3%9;q*#+.%#;#&O,=+.,<%++.# =o234&34X 1@2%0#q=O.3$&X5@X",
"@X=+..>@. *o=oo.O O o..   o.X ..>o7,<++.X...oX1#   .+.OX&  #3@@XoX+o#o@XXX +X+.+X+oX #=OX. X O.+@#$::  X.+.o.#o. #o>+#X ",
"6$1*+ ;&@ 1+>$:o*X:X<++O@.=.#o#.<o=&3#=#-O#+;@7O.+$$1%3%3. O6@.%>*3%,*,$+O.-+%O$@=#$.=-&O+.@.*.1,3=<:. ,+:+<O5$O.6&2+,o.",
"&.#+X &.X o.OXX X X o.... o X.X.#O,-#.XoO.X.++1. .Xo&X%X+  #8@ XoX-O%$4o.. X.X.&$+OX &1OXX . o %1@%%%  o.o.#.-@. %+*$@..",
"1$<&O =++ 2#3#:o= %X,+@X@o;o-O$@5O5:8$*+=#&$6*r@ #&$3#,%6. #5*o-<&1&7$5#@+.&#&@=;;&+.-;>#@.$.;X354;3,  >#<@,.;*ooe*2;2+X",
"*X=@X &XX #o@X+.o +.%XX X.+ O.oX$+:&$X+X+XoX#O=o Xoo@X+O&  @:@.+@@&@&+%oX. OoOX$%OX. ;#+XX o O ;*@o4-  $o%o@X=@. #O4$#X ",
"6$1*o :+@ 1@3#>o* <O3++o@X=X*o@@0@722$,#:+$$5$5+.$=+;@;*5o @q$o&2*<:0<r$#O.,->#;;=$$.2>>#+.$ &.:-3=3;. <@1#3+9=O.2@3;4*X",
";#&@. =@. $o$o+ . o.#.. . o X ..#X3*$XoXo..X$o*. Xoo#o@O$  *wO O$ooO$+&oo. +O+X@+OoO.##o.. X X ;=@o&$  OX%X#.$o. $o2$,# ",
"6*q1O.3@+ <#5$-X$.2O1@#O$.%.%o&+5@716$;#>@*@5+>O.$&&4*4&4X &6%o-6&$-7#>*&+.;&=@><:&=O,<&+#.$.=X1-,=56O ,@5#2o4%OX6#2>5@O",
"@o;O .$o  oX-oX . @.+.      ..O.#X1<:XX ..X.#@wo   X$O=O+  @,O XO..o%O%..    . %&XX%O@$X .   . &%@o$%. . @XX >$  @.=+#o+",
"2&4*+o7%+ 2#1#&o$ $X,+@X+O=X*X&O3+0q3&;+&+%O2@3@O@%#1$<$;. O6@.%:#o=1&3&#O.;#&@:>=#:;>4-#+.@ $.86>*,1&.,+>@:o:&o.1@2&2+3",
"OX=@..&X. Oo*Xo   ..%X.   . .X&X# q5$XX..  .Oo;o  . .o#oo  @,O #+X O-%:... . . o+..#;=-oo  .   %%O+>,. O %o#.&#. #X:%*X2",
"<&&&@X,#+ 3#6%:O*.;X&+#X@X=X*o<+4X7*7&:+%OOO4#6@+#$#3#;$>X -t&X&;#o=q=<&#@.=#*@-1:-<0,<*++.*.=X<:4;>;*.,O*+<o3;o.2@7;4@2",
"$@*@. $oX *O;++.o +X#.o.X.O Oo;@=X4;#o+X+XXX#O4OoXoo-o+X@. o8O.o@X.o,#-oX. Ooo.$:&#;2#$o.X O O.,=-&-=O #.OX#.&$. $X<%#X-",
"6&3-O >$O 5#&@:X& 1O3@-O#X-X>O4&q@q:9&,#,+#@7@q*=$&#2%6@>OX+9&O&1%O;6;r-%O.,;*O&:>*,3<2:#@X=.;o<->-64:.1+3@2+6&O.2#q<5@6",
"#o#O+X;+. %X#o+ X @.%O2o. o OO:o%X3**O+o#.XO;O6+XXoX$+;@&XX+y#.+%X.@1%0@o. @+OX=#@+4:*%@oX o $O1$#O$$O +X%o%.&XX $O5;>#>",
",@<=:+4:@ 2@3%:o& >X*@9#%X&.&+6#3+*,8%;@>O@@9#7$#@#o3#,%2%&@q$o$-#O-7:7=*O.-%-@,:-$<<*=>#oX*.1:4<<=::-.:+,@1o,@=.7&6:,O6",
"%O&O&$*$  +X&o@.X X +X*+. o o.$+=.r>*X.X=X X:+:.. .O&o+o+oO@5# X+  ==O*oO  @+..#@X.#*&$+X  . 1<>:&O>%. X.$.O.3%$.-#2=$.-",
"1%;%*:1## 4#>@*o$.<O3@8*@X:X=+3@3O8<1#=+q$%O3@3##+#$3=<#;+&-8;o%>#o-3%3$+O.&-%+>>%+:5&*#O+.% &-@$<&;-% ;+2@<o4%3+3#1*,O6",
"$ >%;##X  +X&oO . $X@o=#     o-o% 1*=X.X5o X&@6O  XX#OOX+o#&5o .O  +;@=o.  O+X +++X%%#=oX.   :@&&@+**  +.o.X &Oo.Oo-$;O4",
"=+1&=&6&@ 1#7*;X% ,o3@8$@X;X-+5#2O=*1%;O8$$o1@5=%#=+>$,@;$>&6*o$4@o=w-7*#+.;>;#><%#=>;4:$+.#.<=>*>@2>-.:+2@2+9=>O,@7,<+,",
"$+$+-%#oX $X#Xo O o.@O6oX o o.:o#Xe&9+oX>oX.#+6OX.o.@o+@@XO$8O +*X.#1$#oX. OOo.$&Oo<=$>#XX X *@*&$+<:O o.-O*o&+-O:@4;#.,",
":=6;4,4$# ,@9=<X>X,o6@6&%O:X;O7#3O5#7%:@y=%#9$5+++*#1;7%1*1o3%X$-@o#,<4,*+.<2&+-*,&<1:-1%#X&.6;2202:-=.=O1#<o8&6#2#1;0#e",
"3&&#>-&O. #X*O+ :+$X&o,OoX@ +X=o&.O.=o@o6@oX1+-OXXoO>@#o$o#@2@ O#X.O&*$Oo. -$+o&-*+&=$$$+. o :%&&&$2$O $X,#$ >$#X-O>=3o-",
"1%4:<&2$# ,#4$&.>o>X2O,&#O-.%Oq$4O*X6#*O4O%O<#7=%$%$q-<#:$5%4#.%,@o&3$%*$+.=:&#-:>&;3>:4=O.%.,23331>:* :O1;:o,@-o>O$;2@7",
"*@:$*&#O..%X=oo.#XO.$o:%. o XX:+<XoO,Xo#1o..%o:OXOO#7#OX@o=o,O +&. @%OooX  @%o.=#Oo#=$%=$  . =26:*%&*O @X*@#X;#*o$o1>=#8",
">@<&=:<&#.3+>#=o3@>+1#9<$.*.%+8+2+-O7#=@3&$@8O:&%+%@9*:O:+;#8*o#:$o&3*%&@O.@*=#:;-&;1,,,:+X%.::3>4=3:& -+4;<O-*2@3%;-1%1",
"#X-%7=#O  O.@X..&XOX%X8< .X  o-+* Xo<OOo>  +&+5O .O$<@@+%o@+6o X@. #*@++o  #%X +++o&*1:=+    =$>1@O<-. X.-%O 3$$O&+,>$+;",
"6$<*,>6=+ 1@2%;o7@,o<@61$O:X=+5#3+=o4$;O3#=$5%u%+o#;e*>$>+=*t=o%5@o&3&%&$O.@*>#>>;=-1*;,-+.$X1:<=1=<>:.,+>%<o1$3#:@876%3",
"1#-#2;;+. *o%OX.$Xo.&o;@. O XX%o,.X.&X+X:ooX&+3O.XO@8o@O$+$#3+ #>..=,O+oo. *<X.&=+o#6%%@O. X &#=$&*1:+ o.=;$X&#$X%o>14@1",
">$>&<;2$# >@5%-X5+:o:+6@# ;X&+7@<o*X,@=+7%=+5$8#@#$X4$>=4%,&3=o@>$O=2*&&%@X*%*#=**$#<,<&$+X& 2:;;3:*;$.;O2>2+4;:@0#:#3#4",
"%O,*1$*oX *X&Oo.&oO.#X1OX o OO7+*ooo:XO.:OoX:$4+oo+o,OO@%##O2+.O@X.-;O+OoX @$+o;-OO$=,&%#. o >%:>&+=-o +.*##.>%@o,o<=>+>",
"1%>&<=3%+ <+<#&X3+;o6@3$#.&X-o,@5@:O5#,.,$$+3$2$$@&@8&&&1&:@w*O&,@X*1#$$#@X;>&@&=-&%2,;;*@X*.=&-%:#,1& ,+2;4O=$>+1@3$:@3",
"*+2$-;&O. #o=++ %XO #@8@..O Oo-O-O+.#X+@6OoX;$3ooXo@8+.@%o#X9%.o@X.#*Ooo+  @$OX@#Oo%=*<&=. X >%=**@::O @X;$%X;&+X$o,**O<",
":+2=14<O@ 2#3%:.;+-X-+3=@X%.&X>+4#-X:+*+3#@O2#3$$@*O<@O&>$:O2&o#;@o*4%$%,o.&;%+=&%%=4-,;;+X$ -*<;3*;>-.<$5;=X<&=@>+1$<@8",
"#.,@5>-.  $O-oO * +.&o<O..o .o<#,oXX:oOX>  .$+:o XX@:+.#$O+&6@ o#X.;<@@O#  +@X.Oo&$;7&:$@    &=5=%+<2X +o2$. @ $X%O,=>X4",
";@2*4->## <@3#=.,o;o3+;@#X;X=O2%0&-o2#>O3##+8#0%@@%+8@+#-@=O9%o%>+o=1@@=<$o=;=#%&-&*2==<:@X#.:,1,4-,=;.-+7;:.>O1+3#6:,+,",
",+1#<%&O  #o*OXX&o#.#O5&  ..oo4+<oo.#XOO:@.o*+,X.X+*q+ oOO$@y@ O$  $=oo*%&;#&X.$%+O%*%%$$. X %#==:%:;X o.;+. X *o<@2#*@1",
"1$3=5:,$+ >+4$&.:o>o3#0,#X=X&o3O>O&o1O+X1#%+5@4+O@$&9-#@$+-@5%O$*$O=<&%=>O@=*%+;::*::;:-%%X*X>;32=#-=: 2$:%-X*.6%>+8:3@8",
">O4%3<>OX $X;Oo.*.o.-@8&X O OO3+<o@o&XOo3&Xo*O2oX.o+1+X.X#=O5+.@*o.$=OO+#*;$-+o&$@#=:&*&&X o <&>>%@,;@ &o-%o X.;o-O:-*o7",
">#,&=*>$@ =o-@=.=o=X>%w%O.*X=o>O-X#o,@;O,*$@<@2#@O%X-&#+@$*O2#o@&@o$,$#$=#=&-+O<=*&&;==>-$X&X&%,--$:1=.=O:%&X#.,+;o#O:X:",
"$O-#;**O. #.$o@ &X@.#@t*X + +X-o%X+.%o$+2+oo&+3@oXO@2@XO+O$+8@.$%X.$<@o&&:>@#+o%%+O*,&%,$X +X:&>-&O23+ +X>=@.o #.&O<=-@1",
"1#>&;*<$# ;O;#:.;+:X>+6%@.*X=+8+1@>O<#;@1&$+3#y*$@%#4*@&-#:@6&o&:+X%q-$*:=1*-*@;>=#=,**:=&X:o,;:&2*>&=.=o2-;X$ ;O3#<=;+4",
"1O*#,-,+. $O4$@.*XX.*o3o. X +X=#:X@.$X+o>o.O6$7oXoO@2+ OOO$%2@.O+. #<$+&:%-#%+o+o$+->&&&%X @.$+,:$+<&+ #X=+o   $o-@8<*O1",
",#>&>&:## ;@,@*X:X#X<+3%#X=.&O4@>+%.;+-+3@$o3@3&%@%@r;+#$&2+5*o#=+o+-&%%:&<=6&@$%2&>2;;;=@X;o;=>-%+-;@.=o>&=X+ :@>#5<;o4",
"=@=$3<,+. :O;+X.<XX.*@7=. X XX:o-OOX=X.X<O.X<@5o. .#9$X.X@>=8# O%. +=#@@=-4%3@O%=%+:;%%&$..# -->-=**o@ #.-%O . >+=@7<>$<",
"<%>&-=>$+ =+>+:X2O<o3%7:#X%.%O2+,+*o2O&O4%# ##2++O@o,#+@%#:+7%o#=@X%1$#%4%:=:&#=<;&*=&&=%#X-o>&7:<<--% -O>==X$ -O<#2<>@5",
"-@>$>>>#. &O:#o =++.$o<oX o.OX:o,Xoo1O@#6#XX1*9+XX++1@.XoO#X2O @-X.=2+O#=&>%,@O*=%#1>+o*%..%.*$1::$24$ &+;$O.XX-.&O2=,+7",
">$*#41-#+ &O,#@ &o*X:o;@@.%.%X-O-o=.:+-+:$+o>$1$@#-+:#O+#$;@4#o+$+X$5+#$=&:&-#O=-Oo**-@&%@X-X@@-*-#&** -#*$&X#.>o*O:%:@-",
"&#:=7;&XX.>o>Oo.%XO.%O2&X +.@.*+,X+.%o#O5+oX**9+oO&+4+XO@#%,t#.O#X.%7#+@:%>#%Oo;%#+-4@.=*O #X;*=-*@>1+ :&,=O X %X&O6-=o2",
">%11>=:@@.2+<$#X,O*X,+6*# +.*X<+<@*X2@-@5+#+5%6%$@:+2#@%-@;=5$o$*@X+1#$&,%2=6+o--=%<q%X=%#X-O:=O+>$33* 3&>=%X@ :O=O3=4#<",
"<O-%,*=O. *O*O.o1X@X*+w=. O.+o<O*oOX=o+@2ooX=O:++O*%7$XoO+@%0% +%. %2#O=*%:&;O.*%$+<2O.=&o.@X=%1,=+3<+ ,$@+O.o %o=O<;;@7",
":#&&2>:#+ 2$>#@X:+-o:+5%+.&X%o1+3X$o,@=O,$*O:O<#%+,*7*+@$+&@0*.#=O.&e=$&-%:%=#o$*-%=:$X:-#X=O=$1<=#>,% ;&=%%X# :@:@,=<#1",
"%.:&1=<@. *O:@ X>O$X&@5=..O.+O5$5@$o-XO+3+Xo;O8#oO*=7@.oO+&*7@.$:. +4##**$&$%Oo-:#+::X -%. &X3&<-,=,>O 4;3&o . ;@;+,*,+1",
"&O&@=@;#+ :+4%O.,O-o-o:$%.$X*X>O,o&X:o#O<+#O;+3$@$,$1=@@$+->2@X@*#o$4&$%*@*$=$@%*&$<;%X#$$X$X-%-*-$*%&X,==#+X$ &+>+4,3O;",
"%X=%1-:#. $X;OOX:o$.#O2&+ O.OX;O:O+X&O#+9oO+:+8@XO>+3+oOOO$@%. @>..&9@O&-=2=-oX=-#@2,o %&X.@X1=&+=$<=#.5;2;@.o *o%o52,X2",
"&O*$-*-#+ *o-+#O3o&.=O;#&.*.%o>X=O;X&O*X,#$+;O;@@ OX4%+%%+*#*OX#;OX&:+@#*$;&=&O$$*$4<$X%=+.=o%$*+-$;=-X,-;%+X#X2o*X>#=O3",
"-@5%>=1=X =@2+X.-X@X;@q;*.O o.;%3O@X;O@.<@=X=+1@oo*+0#XoO+%@#. $,o.14$##%%2%&O.%*&$<9O =%. %o:=$O:;3;@.>%2=O.X *ooX9**.6",
";@-&>-2=+ 1$:##.:o=X;@7:;.%.$o2@<+$o6@=o4+-O>o=+@O;o>$+O@@=@$OX+&OX=3*--=%q=-#o*2&%@:$.&%O.&o-&;#;=%=+.:$1*-X@ &O#X<*-o-",
"-@>:4:3*X =+:+oX>oO.*O0,*.O.+O2@<@$X:o+O3o=o3@3+OO=#5@.XO%*OOX.$=X.&9%@;;%,&;o.--%+-<o.*%O.$X;*%X-#>:%.-%5*#.o =ooOq*:O4",
"-O;&>-*%+ ;@:@@O5o%X-o;#1O%X$X-o;o#.=O#X;O*o:+4%#+:O6*oO@#*$$+o=;OXO>%#$*#=-<$X<=#@&-%.=%#X=o:-*O=#2*% <%1&&X@ ;O#X;*;O1",
"3#<*>;2:. <@,@o.2O$X-+7&*.@ @+5@1+&.&o##7**+4#w#O@,$5$o#@%*O+o.#;X.&6#+=;;4<:o.>:%#*3o.4-X.-o1<+o3=6>@ 4=>@+.O &XX.1;7O3",
"=+&#-@%@+ %o=O+ *o&X*o:#;X$.&o:O*o#X&o%O6#&X*o;+OO;O-@O+@+&O#OX+<+X%1%#+#%-@%@X+#$#--#.=$@X$.%##O:$<&$ -$%@$.+ #o%X5:;X*",
"-@6;6>5;. =O=@XX-O#.*O9&=.@.OX*+3O#X-o#.1$1X*@0@O+-#6#oO#O%@+. @1X.#3#@%-%;%-X.%$>#<4+X1&X #.6-%o:--+@ 2-9>O X -oX ><>@6",
":#3=3:2%+ :O+o$.1$%X,+<#-X;.&o,+2+;X-+= @X=o1@5&$*<O,@O+#+*@$OX#:+X#1&$$%$:&5#o*%*#*:&o=&#X*X-%=o$@-** ;&>=*X# ,+$o5&>#w",
">#2%>>q=X >+,%oo4o#X>@3*=.$X:@2O:O@X>+$+5%&O3+$OO+4O9+X+$#=++X.+;oX&2##*-%,=3o.$*%$=>o ;=X %X;%@o,%;;@ ,:;%+.X -ooO0,,Oq",
"-@-%;%-*O :#1=+X=o:o;@2$-X&X;$5+3o$.*O*@q$=.+@*O+o=#3+oO##%$#+X$>+o#:OO:;*<@%+o&;=$$-+.*%+.$.,*&O-#:1% <=-%#.O -oOo0=:O:",
"3@>#%@2&o 4=2%OX:O#X&+w$=.+X2$3@2o+.=+$#7&=@1oXoO+-$8@X@@O@OOO.;2OX;7&#&:*:=*+X113,3<@.&@O.# :;Oo,-4=+.>&1*#.o >@o 1$<%3",
"*O%+%#<$+ %+=+&.%X;X%o4==.#.;$1o&O# Oo%O:#&O*OOO@o$+-#O+@o#@@@X@*$O@-#@+%@&+$#o##&&><#.@+@.@.&+$o->=#$.;#&$@X@ $o@X1#:*4",
";@,*,,0,O *o,@+X>@-X;O9*=.%o5&5@6o*X=o@+9O;+<@*ooO5%7$o##$;##O.$-OX*7=$@&=,#*@X===&-7@.-*O.-o>-%O,*6;& 1*1=&XO =oOXu-1@>",
"%O%+*%<;+ %o*O@.;#*X=O5%;.&X5$>O>O#X;o#.2$=o;&-oOo-+q#oO@@=#$+Xo@+X&6*$+%#*@&#o#%%@#*#.%@@.%X&%&O*#&%$ *@&#%X+ -o@X7;,$;",
";#>%4:6<o +X>#+X;O*o2#e=&.&X9=5#6@$.-O*+q#;+,&,+O%:+7+XO#&<##oX#%. $e*$%=,2%,O.&%&%>4O.>-O.=X<:-+:#1*&.7>1>%.X -OXo4;8-9",
"4=:%-&:%@.*.-+@.-+=X&o;@*.%.;O;O>+&.*O#o>+2.&+=+@+=.;%+O@+*$$OXO%O.O-$#$&%=%%+.*##+O$$.&$#.%X=**O-$7#%.:*3:$X@ ,o# ;@=$:",
"2&4-1<q=o $.:@o 3+@X;+3&&X@ot%>O,o%o,o@$5%<O2#4OO$1O3#oO+$-+OX.#$X.=8&#*>&>1:O.,-=%:6@.,;o.$X>-*X&#6$$ >%6>O.o <+Xo0,5=9",
"*O%@::*%+ + OX+ &o$o1O2O#X$o1@*o;O#.%+*%q@$X;+1#$&>o*OOO@+%+@OXO@o.#5-%@&*-%*+X$$#@#4%.&%+.:O#@$X&+&@@ &#,=+.O ,#O.1;<&>",
"3%4:<:3=X +.<#Xo3O-X;@0=&X#Oq=4@0%@X=o@.,#,+7#1+OO-%9$o+##=@&XX#%oX-4%#$=:5;1+.-,&#:3@.>=o.#X2,*o,&,-# 3:6,#.o *.o.8:-%7",
"+o,;*$%@o O #oXo>.#.@o,@@X@.-@&o&oO.$XO #O%.#O%OOX=+4$+o+o#O+X.o+X.@*Oo+%@%OOO.%-@+@%%o++X +.$#@X>@$@# <=$@+.o +.O.&$>%*",
";$6>q13,o #X<@@.;X@.1+<$:.+o8=3%w%$X,+-#9=<O,&1+#O6$y$O+@#=#%o.@%OX,8&$*;;6%*+X::;=20#.>=O.*O=:-+5=4-&.;&4:%.O ;O+o87u39",
">O*@1>5&O X.=++.;o$.-O,#*X#.;#>@<@$X-+;X2=%o2+*OOo-+6#+O+#%O@O.#$+X21#@-&#=-*@X**@@-=$X$%#X*+&*%O*$1+# &#=$&X# *o#.>75;4",
"4$,%=<::X %X1@o.1+=X>@6-<o&X7$3O2o%X,@=+w$@@2#>+##<$8%O+#$;%$o.$*X.:7%$$&=1-<#X,;*%21+.;&oX:X2;;@:$2=% 4=1&%.o ,O+Xq<5=0",
"&+>$-%,#O @.*+O.%X&X*+8$<o&X4#,o<O$.#O&@>@#o:O*@#O=X:++O@+&$$OXO$o.#,%++$&>%6$o*=$@=*#.%$+X*X&#*O&+8## >*:+#X@ =o+.<&*O,",
"<&,%=;:+o $X<#+.>o@X=#0-<X@.1#2O2o#X3@&@6+OX2#,++O=O1+oO$#;#-oX@&X.=8=%=;;5&3O.=-&$:6O.-&O.@ <:$O>#5;$ <*1&%.o ,+*.*-6:5",
"#o#O**%OO @.%O+.#.+.$o&##.O.&oOX$X+ #o#O3#OX>O#oo.@.&+XoOO$+#o.O#o.%4+oOO@=o+o.@O+o=7+ o+@.+.++@O-+#@#.-+-+@.o &o+.==w-=",
"<&<=817;O +X7$OX,O&X,#8,,O%Xw=3@7**.*O&.5%XO3$4+@$,-y*O+#$-<5+.@%oX$4#+@%#>=;+.;-*$%:#X,:O.%.4>:%9=4>-.7=4=%.o ;O*+w25=0",
"$+&@=&9@o o.*Oo.&X#.@o5=$X@.<$<o>%#.%XOX*OXX%O&Xo$;O:+XoO#&@-O.oOOX%4+oO$@=@#o.#$OO+&O.&%O.+.%#$O-+*$+ -@$@@X@ @X#X=#*$2",
"*&7;w2<#o O.>++ 5+&X,@w;3O%.,&w@<X=o>+*@9%#$8#,OOX;%0#X@%%,$5OX#*+X%r*$*:<0->+.-;*$:1@.,<O.-O2>*#5&-:&.9=3:=X+ ;O&o0-8:e",
";$-+,->@o O &O+ $X+.%o>#-XO.2@%X&.%X-o$X%oXo-O=ooX%o:OXo++#O%OoXoo.O&+O+@@*$%@.+@OX#=@.@@@.$X%%#O%@<&@ *#%@@.O @o$X:#2@5",
"2$3*>>w&O @.3%%o1+=X<o;O>o&Xq&2@<+*O6#&+6#+X2%6OO+4%9&+O@*,*<+X%>O.=1%#;,=3@*O.-;;*,7&o1>o.&o$-,$2:3;&.%#1;%.+ 1+&o8:9*,",
"%O$@-#%$+ O.5$@.%X$.$X3#,o$.=+%o%O%.%O%+3O+o3O*XOO&Oe$ooO+$O%+X#*o.*7&#-%&:&=O.#*##*6@X%%o.&X$$$X:,:-+ =#-$$.O &o%X-$&@-",
"<$3*&#1&o @.5*:O5@*X>+5$4o$oq;5#6+$.&O*+7++X1#,O++5@q%o+%*;&1+X#&+X+,=%-,*2*;+.;>>=+2:==;+.&X&><#:#**=.7*4=&.+.<+;O2<8;6",
"oX=#-##Xo o @O#.$X#.$o,+#.O &o+o:XO.+X@o:oO o.OXo#8@;..ooo@O+o.##oX.o@OO+o@o++.Oo+o*5*$$%@.@X*O:O@X&@O #o-&+.+.=X@X1#$#5",
"<%;-5-9>o #X5-:O1$*o2@e%3O$Xw*5#3o*+3+%+q##+4$,+@+9=y#O%%#2-1+X=;+X<0*&*;;5,>+.%$=%*4:<<-O.:@6:7=6=1,*.<&;>%.+.>+$.3&8,w",
"-$$+%%1#o +.%@>X%o+.%X=+&.O.4@&o%XOX&X+.=+OO=o%ooX=O2#XOOo$O%@X@%o.**@%O+$;;#X +@@+*-#@#@o.#X$@&@,+$%@.2$:#$.O $o+X;*2#:",
"2%9>7<w:O %X4#5+1+>O<@9=7@=X5&4%7+&.;@:@t%#&9$2@#@t-t;+@$&>o,OX&>o.15=-=1*<26o -;;*%,>*>:#.>+3>9=2*24- 1*7:#.O.4+*Ow4t>t",
"$O&$4$=@o +.&o$X*.#.$X;+#X+.1#=&2.o.&O$X-OOX%O-oOo=@8#XXOO#+:o.O@X.**+++#@&#%o $##@*1+OOOo +.-$$O&@-#+ ;+&@O.o.:X@X4>-@-",
"3$7:2,41@ $X4$1o8O=o6+4%9@@X9*q%3o&o5#*+w%#@1$4@#$5=7#o@$%;#,+o&:+X>2$$#%&:=;@X##&&-1<>:-+.<O&&%+;@6&$.4&2:#X#.3+$.;>1&7",
",X=o&-*#O # #o#.#X@.#o*@&XoX>o#X#X@.:+=@;OO.#X+..o=+1oXXooOo#OXXoo.O#Xoo++##%o.$@$#%&+++OO +.=$+X$O#@$X=@#@#.O #X+.,=;@<",
"*o5=12,@o.=o3@;o<O-X=O5%>X*oq=4%w$*o<@4#7$$@5$<@%&6$6#+@&%:*3@o#-+X&<$#&>%#*-@X<:<*;2-*>-+.:O*&2$:#2;*.,%3;*XO =o&X2#**2",
"+X=####oX @.+.#.+.@.+oq#@.+X7$+X#o# +O&##+OX$X+o@*<X=OXO%+@##o.o+X.*:oo+#oo+OX OO&+o,+oOOX O.+O#O$+o.o %+&=+.X +XOX-#<$3",
"4&<*4:q,O %X2$,O2+=X;o2:6o*or=7#3o*o3#0-8&#+7%5+@=0&r%+o=#::3o.&<OX%1*$-4O.:1O.-<-;<0;*2,o.:+,=>$,=1,;X2&62%XO.1@:#tqy19",
"#o%O%#=#O O.*O*X=X$X#+2+%.Oo1+>#*.+X>#u%8XOo,O&oo&8O;OXo+O$#;X.o+OXO$OOO+X %,o.#;#@#=@@$#o.$o*+@o$+-#@.-#%#+.o %X$+7&3#=",
"% 2=6-9-O %X9=4X1o8#-#e>2o$Ot,9$5O*o5o3*2+#+e&8++Oe*p&@$,%,%3+X-,O.-5*&**  ;5@.,>=$59%&3<O.,$4-2%<&,$= 3*9<#X+X7@&+0>4%7",
"O %#%@&+X . %o#.*.*oOX&+%.oo4%,O*.o.$#e%,XoX$O,X.X&+6@oo#o@O&o.%$..#8@ooo  $-X #*+O*;;*$#X $O%@$o@o$+O =@#+o o.:.OX2-*@0",
"* 6<617:O *o0=5+,X-$*O9=3o=Ou*6#6o&o3%q;7#$#0%6#%$3$w%%$1&,-8@X$-@o;5;%%$  &2@.:2:*%>$&=$O <@1=%@4-<>*.*$4:%X@ -o&o6*7;7",
"@ ,;&+$+X @ @o=OO.1+oX:OO.#.=O@.+.X oO2O&+X.+XOXXX*O=oXoOooX>o..X. @%X.oX  +$X +@+X@%oo&$. oX=&o.+o-OX ,%#+o.X o.@.1:&@&",
"& 7:5:7:O *X6&3o2+6*&o5&7O#.4%5+1O%o5@6&7-#O2#1++$8&8&-$>=>$4@o%:@o%<*&%#. =;#X%;,*,<%&1:O.;#>->$2&4>& *%1>%X@.4@:o4*0:w",
"o #O2#%$o +.&X+.@.#O@.>+@.o.5&#o$.o.$X>$;*o.@X#Xo.9@5+OX@XOX+oXO#X.o@+@oX. +Oo.@#oo&*@+oX. *o@O..Oo++O XX:@+.X #XOX5;5@*",
"*.1=6-3<+ *X3&1+<O4%=X6*2O*X7%2#5+;+7#y,e=%+3#>+#+r@2$&O;%:;0OX%1+X-7==&$  36%X&%-&>4>=2<o.<;7<,$<=3;;X1&5>@.O 2#-O4;8,8",
"+ 1#%+*,o +.$O%.+.%O+.<+$X+.&O*o;X+o=o1+%OoX$o#oo#:=6O+O&@#O%X.O*X.@7+OoX  @$O.++#+o@=@$@X &*#@-+;$=++ 2%**o X @X@X9&1&&",
"* 7>4,6*@ $X4%6@4@q==X4$4o#Xr=1+3X%O0=s1q=O+6%3$$&7>q-:$6*1;4OX*,OX&6*%%@  ->+X>:>;;51:*$@.*#1:;%&#>$*.2=62+XO.5#&o<:4>4",
"o $+%#&#o o.>O@.$o3O@X3&:.X.-+&O& o.>+0>8+.O*@>XXO&@&o+O1O@%*. oO. o#+$oX  #*X @@#O@&,@oXX %O$@+X@O&@# #O%@X.X #Xo.1=1=*",
"* 1=4*3-+ %X5&7@5+6=:+q,w&-Ow=3#7+*X>o4,6=&%0%7#$%e-6#-&3@*-7@o$*@o;2:w&@. &2$X$%2=;3<:&O@.>%5>1$2&=>-.8-5:#.O.2@-o8:4#8",
". :#&#*@. + @X:X%.$o..:O+o+oe&*X+XX $O>@=o..+X+..o%o+O#XOo+O-X .Xo.o@#9#o  oO. OOoX@=+$X . ;X;**X@O2:X #O#O. . o.@o2@1O*",
"-X2*4*--+ =o8%2+6o8*-o5&<O=X5$3+2OOo6%6;9$$O<*8+O$6*:+%%<@*$3+o$=@o;7@7*@  =-@.:>:=>0,1. @X,%,>3$=&4,=.7=2:$.O.2@&O7;2%6",
"o *#%#6-X +.O.O + #XX.*@+.oo4O%O2XX +O>*5@X.OX%XXo*OXXo@*Xo#$..O#X.O@#6O.  #oX ooX.$4+O  X oX$@$XOX$Oo OX$+X . #oO.3@;>1",
"$.2-4:3:@ %X3%1O<X7&-+8%2o-ow*,+4+++8#9=0#%+7&7@#$8=%+%%6&2=5OX&,+X*1@7-#. 1<$X-;:=,5:*X.@.,%&-6%3=5;=.2&8>#.O.5@;X4=625",
"O @O-@$Oo o.*@O.#.&oOX2O@.O.*#;X$oX.#X,@3@OX$O*oXX=+OXOX$o@O%X.o+X.:3#0@X  #@o.+++O@$$o. o.=o-%@o$+#+O #O>=o.X #X+O7$2@=",
"&.3-=&7># $X7-3O5o6=*X5$3@=X7=7@5++@0$a>5#%@7#>oO$9=*$=%6&<$,+o-<@o-4$u=+..58%o<2*#>91>  +.>*-&4%4;6>%.2$<:$X+.2@&O7>q=6",
"O.:&=+;@X O $o#.#.%OO.#X*oO.&@*O>.Xo*@5#%Xo.%o@XX@9#ooO@>XOO$..@@X.+@@7@X  ++o.@@oo@*@@  . @OOo@o$+#+O %o%#o . @.o.=#*@1"
};
